<svg id="bb981794-f8d2-433e-acb8-7ab0af9cb074" data-name="Layer 1" xmlns="http://www.w3.org/2000/svg" xmlns:xlink="http://www.w3.org/1999/xlink" viewBox="0 0 352.76 105.71"><defs><clipPath id="e508905c-031e-4b9a-a118-d17e0b8b6603"><rect width="352.76" height="105.71" fill="none"/></clipPath></defs><g clip-path="url(#e508905c-031e-4b9a-a118-d17e0b8b6603)"><path d="M11.06,87.61V48.44H4.35V42.06c2.2-.88,5-1.87,6.82-2.75a13.57,13.57,0,0,0,3.52-5.5,101,101,0,0,0,3.63-11.12H28.55l.66,16.51H45v9.24H29.43V77.6c0,11.44.44,12.32,5.07,12.32a28.88,28.88,0,0,0,9.79-1.76l2.31,6.93c-3.85,3.09-12.65,6.28-21.35,6.28-9.68,0-14.19-4.4-14.19-13.76"/><path d="M52.19,93.11l6.71-1V50.75l-6.49-2V40.19l18.26-2.42H71l3.09,2.31v2.64l-.33,9.13h.33c1.32-4.51,9-14.19,19.69-14.19a10.49,10.49,0,0,1,4.4.77V57.57a13.76,13.76,0,0,0-9-2.86A21.53,21.53,0,0,0,77,58.12v34l12.1,1.1v7.16H52.19Z"/><path d="M146.57,94.76V92.34c-3.31,4.51-11,9.25-18.6,9.25-14.41,0-19.92-6.5-19.92-23.22V47.78l-5.17-1.43v-7l20.69-1.43h.11l2.42,1.54V78.81c0,9.57,2.09,12.76,8,12.76a14.48,14.48,0,0,0,10.35-4.18V47.78l-6.83-1.65V39.31l21.79-1.43h.33l2.64,1.54V92.78h5.83v7a68.21,68.21,0,0,1-14.19,1.65c-5.39,0-7.48-2.42-7.48-6.72"/><path d="M210.8,10.28a21.2,21.2,0,0,1,7.38,1.1v16c-1.43-1.55-6.72-3.86-11.67-3.86s-6.71,2.31-6.71,8v7.79H231v9.13H199.8V92.12l11.11,1v7.27H173.39V93.11l8.48-1V48.44h-8.59V41.62l8.59-2.2V36.8c0-15.08,13.31-26.52,28.93-26.52m83.39,82.83v7.27h-32V93.11l7-1V20.93c-13.46-4.39-14.3-4.45-19.25-4.45s-6.72,2.31-6.72,8V39.31h13.21v9.13H243.24V92.12l11.12,1v7.27H216.84V93.11l8.47-1V48.44h-9.58V41.62l9.58-2.2V29.8c0-15.08,13.31-26.52,28.94-26.52a21.13,21.13,0,0,1,7.37,1.1v8.41l21.89-2.64h.33l3.2,2.31V92.12Z"/><path d="M295.37,69.79c0-20.36,12-32.13,30.15-32.13,15.62,0,23.66,8.36,24,22.34a49.94,49.94,0,0,1-1,11.33H314.08c.77,12.43,6.05,19.14,15.84,19.14A33.33,33.33,0,0,0,345.66,86l3.08,6.71c-3.3,3.63-13.32,8.92-23.77,8.92-21,0-29.6-13.1-29.6-31.8M332,64.07c0-1.54.11-3.08.11-4.63,0-8.58-2-14.19-8.25-14.19-5.61,0-9.57,3.41-9.9,18.82Z"/></g></svg>