<svg id="a2f9be5e-d499-43f3-bec2-6436985fe15f" data-name="Layer 1" xmlns="http://www.w3.org/2000/svg" viewBox="0 0 352.76 105.71"><path d="M31.09,35H45.88v6H31.09V80.46c0,6.56,2.5,9.3,7.63,9.3a14.06,14.06,0,0,0,8.71-3.22l1.67,2.39c-4.17,6.68-10.5,11-19.56,11-10.27,0-17.66-5.25-17.66-19V41H4.72V37.63A53.19,53.19,0,0,0,27,19.13h4.06Z"/><path d="M78,88.09c0,5,2.62,5.61,9.78,6.33v4.29h-36V94.42c5.13-.36,7-1,7-4.89V47.41l-6.92-4.18V40.49l23-6.68h3.58l-.47,18c5.25-13.48,9.06-18,16.34-18a7.35,7.35,0,0,1,5.61,2V50.39H97.42c-7.51,0-13.72.36-19.44,5.49Z"/><path d="M167.46,85.59c0,4,.36,5.61,4.53,5.84l2.87.12v4.18l-23.39,4.18H148l.36-11.46c-4.65,5.49-11,11.46-21,11.46-10.62,0-17.66-6.09-17.66-19.69V50c0-3.69-.83-5.84-5.13-6.8l-1.79-.35V38.82l23.51-4.89h3.22l-.6,14.67V78.07c0,6.68,2.51,10.62,8.71,10.62,4.18,0,7.16-1.55,10.74-3.46V50c0-3.69-.84-5.84-5.13-6.8l-1.79-.35V38.82l23.38-4.89h3.34l-.71,14.43Z"/><path d="M231.53,12.57c4.77-4.89,11.81-7.28,20.16-7.28,6.57,0,11.46,1.44,15.27,3.58l13.25-3.58h3.1V89.53c0,3.93,1.91,4.53,7.16,4.89v4.29H257.3V94.42c5.25-.36,6.92-1,6.92-4.89V18.89C262.31,14,259,9.83,253.12,9.83s-8.82,4.29-8.82,13.36V35h12.16v6H244.3V89.53c0,3.93,1.67,4.53,6.92,4.89v4.29H218.29V94.42c5.13-.36,6.92-1,6.92-4.89V41H205.28V89.53c0,3.93,1.67,4.53,6.92,4.89v4.29H179V94.42c5.12-.36,7-1,7-4.89V41h-8.59V37l8.59-2.63V32.73c0-17.65,12.53-25.65,27.56-25.65C221,7.08,226.88,9,231.53,12.57Zm-6.32,18.14a30.37,30.37,0,0,1,1.67-10.38c-2.15-5.13-6.09-8.71-11.93-8.71-6.57,0-9.67,4.65-9.67,14.08V35h19.93Z"/><path d="M350.72,59.34v2.74H312.19C311.83,77.71,320.06,87,331.28,87c8,0,13.48-3.1,17.89-9.19l2,1.2c-3.1,12.52-12.05,20.88-26.48,20.88-17.42,0-29.83-12.29-29.83-31.5,0-20.88,13.84-34.6,30.66-34.6C342.13,33.81,350.72,44.55,350.72,59.34Zm-38.29-2.15H333.9c0-11.33-2.62-18.73-9.66-18.73C317,38.46,313.14,46.22,312.43,57.19Z"/></svg>